<svg id="Слой_2" data-name="Слой 2" xmlns="http://www.w3.org/2000/svg" viewBox="0 0 480 550"><defs><style>.cls-1{fill:#1d1d1b;}</style></defs><polygon class="cls-1" points="54.26 130.66 203.69 130.66 203.69 151.01 224.05 151.01 224.05 21.67 203.69 21.67 203.69 40.84 54.26 40.84 54.26 21.67 33.9 21.67 33.9 151.01 54.26 151.01 54.26 130.66"/><path class="cls-1" d="M433.6,259.4C433.9,27.66,244,40.84,244,40.84v89.82c116.69,0,100.38,128.74,100.38,128.74H324.32v20.36H453.66V259.4Z"/><path class="cls-1" d="M284.4,279.76S290,191,203.69,190.54H54.26V170.78H33.9V300.12H54.26V280.36H189a5.39,5.39,0,0,1,5.39,5.39V418.08H174v20.36H303.36V418.08H283.6Z"/><polygon class="cls-1" points="433.6 300.12 344.38 300.12 344.38 418.08 324.32 418.08 324.32 438.44 453.66 438.44 453.66 418.08 433.6 418.08 433.6 300.12"/><path class="cls-1" d="M40.15,474.51v21.08c0,8-.15,14.48-.61,21.16l.15.07c2.59-5.19,5.8-10.61,9.53-16.55l16.62-25.76h6.63v50H66.22v-21.3c0-8.09.08-14,.61-20.34l-.23-.07a149.4,149.4,0,0,1-9.53,16.84L41,524.54H33.9v-50Z"/><path class="cls-1" d="M90.69,474.51v20.93h24.86V474.51h6.71v50h-6.71V501.09H90.69v23.45H84.06v-50Z"/><path class="cls-1" d="M140.4,474.51v20.93h24.85V474.51H172v50h-6.71V501.09H140.4v23.45h-6.63v-50Z"/><path class="cls-1" d="M227.39,499c0,17.22-10.75,26.35-23.86,26.35-13.57,0-23.1-10.25-23.1-25.39,0-15.88,10.13-26.27,23.86-26.27C218.32,473.7,227.39,484.16,227.39,499Zm-39.87.81c0,10.69,5.94,20.27,16.39,20.27s16.46-9.43,16.46-20.79C220.37,489.36,215,479,204,479S187.52,488.84,187.52,499.82Z"/><path class="cls-1" d="M236,475.18a66.3,66.3,0,0,1,12.12-1c6.64,0,10.91,1.11,14.11,3.64a10.39,10.39,0,0,1,4.27,8.83c0,4.83-3.28,9.06-8.69,11v.15c4.88,1.18,10.59,5.12,10.59,12.54a13.31,13.31,0,0,1-4.34,10c-3.59,3.19-9.38,4.68-17.77,4.68a78.8,78.8,0,0,1-10.29-.6Zm6.63,20.49h6c7,0,11.13-3.57,11.13-8.39,0-5.86-4.58-8.17-11.29-8.17a29.39,29.39,0,0,0-5.87.45Zm0,24a35.52,35.52,0,0,0,5.57.3c6.86,0,13.19-2.45,13.19-9.72,0-6.83-6-9.65-13.27-9.65h-5.49Z"/><path class="cls-1" d="M285.63,508.81l-5.33,15.73h-6.87l17.46-50h8l17.53,50h-7.09l-5.49-15.73Zm16.85-5.05-5-14.4c-1.14-3.27-1.91-6.24-2.67-9.13h-.15c-.76,3-1.6,6-2.59,9l-5,14.48Z"/><path class="cls-1" d="M330.61,474.51v44.61h23.56V474.51h6.71v44.76l4.5.15-.46,17.15h-5.26l-.46-12H324v-50Z"/><path class="cls-1" d="M379.94,474.51v21.08c0,8-.15,14.48-.61,21.16l.15.07c2.59-5.19,5.8-10.61,9.53-16.55l16.62-25.76h6.63v50H406v-21.3c0-8.09.08-14,.61-20.34l-.23-.07a149.4,149.4,0,0,1-9.53,16.84l-16.08,24.87h-7.09v-50Z"/><path class="cls-1" d="M419.2,524.54a31.18,31.18,0,0,0,2.06-4.53c2.21-5.71,3.58-12.69,7.77-16.77a10.54,10.54,0,0,1,4.27-2.53v-.22c-6.32-1-11.36-5.49-11.36-12.32A12.59,12.59,0,0,1,426.67,478c3.2-2.52,8.23-3.86,14.71-3.86a67.32,67.32,0,0,1,12.28,1v49.36H447V502.87h-4.88c-3.21,0-5.57.67-7.4,2.45-3.5,3.49-4.95,10.83-6.78,15.59a31.33,31.33,0,0,1-1.68,3.63ZM447,479.71a32,32,0,0,0-6.26-.6c-6.55,0-12.12,2.45-12.12,9.36,0,6,5.49,9.5,12.73,9.5,2.22,0,4.35,0,5.65-.08Z"/></svg>