<?xml version="1.0" standalone="no"?>
<!DOCTYPE svg PUBLIC "-//W3C//DTD SVG 20010904//EN"
 "http://www.w3.org/TR/2001/REC-SVG-20010904/DTD/svg10.dtd">
<svg version="1.0" xmlns="http://www.w3.org/2000/svg"
 width="1030.000000pt" height="1030.000000pt" viewBox="0 0 1030.000000 1030.000000"
 preserveAspectRatio="xMidYMid meet">
<metadata>
Created by potrace 1.14, written by Peter Selinger 2001-2017
</metadata>
<g transform="translate(0.000000,1030.000000) scale(0.100000,-0.100000)"
fill="#000000" stroke="none">
<path d="M950 9007 l0 -1293 203 0 202 1 1 162 c0 90 3 165 6 168 3 4 2 22 -2
41 l-8 34 1497 -2 1496 -3 2 -185 c1 -102 2 -192 2 -201 1 -13 26 -15 203 -15
l202 1 1 1280 c1 704 -1 1286 -3 1293 -3 9 -53 12 -203 12 -152 0 -199 -3
-200 -12 0 -7 -2 -94 -2 -193 l-2 -180 -1488 0 c-830 0 -1491 4 -1494 9 -8 13
-7 351 1 364 5 9 -44 12 -203 12 l-211 0 0 -1293z"/>
<path d="M5159 9917 c-1 -1 -3 -406 -4 -899 l-1 -898 55 -1 c105 -2 311 -20
391 -35 14 -2 41 -7 60 -10 19 -3 60 -12 90 -20 30 -9 64 -17 74 -19 11 -3 55
-16 99 -31 445 -148 790 -458 1000 -896 43 -90 103 -243 96 -243 -1 0 3 -10
10 -23 7 -13 14 -31 16 -40 1 -9 10 -42 19 -73 9 -31 18 -65 20 -75 2 -11 9
-37 15 -59 5 -22 13 -53 15 -70 3 -16 8 -41 11 -55 6 -28 9 -48 30 -210 16
-117 20 -202 19 -425 0 -161 -4 -258 -11 -270 -11 -18 -24 -19 -205 -20 l-193
-1 1 -47 c0 -26 -3 -47 -8 -47 -4 0 -5 -6 -3 -12 8 -21 11 -128 4 -128 -3 0
-3 -21 1 -47 5 -27 4 -49 -1 -51 -5 -2 -6 -8 -3 -14 4 -6 7 -23 6 -37 l-1 -26
1292 0 1292 1 0 204 0 205 -197 0 -198 0 -1 35 c-7 367 -26 683 -54 870 -3 19
-7 55 -10 80 -4 42 -7 62 -20 130 -3 14 -7 43 -10 65 -3 22 -7 49 -9 60 -3 11
-16 76 -30 145 -49 240 -166 630 -242 805 -10 22 -18 42 -19 45 -21 71 -237
489 -257 498 -5 2 -8 8 -8 13 0 16 -188 292 -215 314 -6 6 -16 17 -21 26 -27
48 -347 383 -420 439 -10 8 -53 42 -94 75 -108 87 -188 145 -199 145 -5 0 -11
3 -13 8 -1 4 -28 23 -58 42 -30 19 -57 37 -60 40 -3 3 -18 12 -35 20 -16 8
-32 17 -35 20 -15 15 -332 173 -347 173 -7 0 -13 4 -13 9 0 4 -8 8 -18 8 -10
0 -22 4 -27 8 -6 4 -37 18 -70 31 -33 12 -68 27 -77 32 -10 5 -25 9 -33 9 -8
0 -23 4 -33 10 -18 9 -197 67 -229 73 -10 2 -25 7 -33 10 -15 6 -137 36 -174
43 -12 2 -43 8 -71 14 -75 16 -117 22 -147 24 -16 0 -28 4 -28 7 0 4 -6 6 -12
6 -15 -1 -142 13 -178 19 -52 10 -486 29 -491 21z"/>
<path d="M950 6023 l0 -1293 204 0 204 0 0 173 c0 94 1 184 1 198 l1 26 1363
-1 c1087 -1 1367 -4 1384 -14 27 -15 53 -62 53 -94 0 -13 1 -67 2 -121 2 -55
0 -101 -5 -104 -4 -2 -4 -10 0 -16 9 -15 9 -49 0 -64 -4 -6 -4 -14 1 -17 9 -5
9 -47 -1 -63 -4 -7 -4 -14 1 -17 6 -3 8 -61 2 -61 -1 0 -3 -8 -5 -17 -2 -10 0
-18 3 -18 9 0 8 -103 -2 -118 -4 -6 -3 -12 1 -12 5 0 8 -19 6 -42 -2 -24 -3
-47 -3 -53 0 -5 1 -40 2 -78 2 -37 -1 -67 -6 -67 -5 0 -4 -6 0 -12 11 -16 11
-68 1 -85 -5 -7 -5 -13 0 -13 4 0 8 -49 8 -110 0 -60 -4 -110 -8 -110 -5 0 -5
-5 -1 -12 11 -17 11 -108 0 -108 -5 0 -5 -5 0 -12 11 -16 11 -68 1 -85 -5 -7
-4 -13 0 -13 5 0 8 -19 6 -43 -4 -48 -4 -43 0 -117 1 -30 -1 -61 -6 -67 -5 -7
-6 -13 -1 -13 5 0 9 -38 9 -85 0 -47 -4 -85 -8 -85 -5 0 -5 -5 -1 -12 11 -17
11 -108 0 -108 -5 0 -5 -5 0 -12 11 -16 11 -68 1 -85 -5 -7 -4 -13 0 -13 5 0
8 -19 6 -42 -4 -49 -4 -44 0 -118 1 -30 -1 -61 -6 -67 -6 -8 -6 -13 0 -13 10
0 10 -71 -1 -88 -3 -6 -3 -13 2 -16 5 -3 7 -20 5 -38 -4 -39 -4 -45 0 -78 2
-14 -1 -31 -6 -37 -6 -8 -6 -13 0 -13 5 0 9 -10 7 -23 -1 -12 -3 -27 -3 -33
-1 -7 -61 -11 -188 -12 -104 0 -195 -1 -204 -1 -14 -1 -15 -26 -15 -203 l1
-203 1290 0 1290 0 0 205 0 204 -195 1 -195 0 2 330 c1 182 4 704 8 1160 3
457 6 836 5 843 -1 27 -1 59 1 332 1 157 -1 308 -5 335 -3 28 -8 73 -11 100
-13 126 -47 280 -92 413 -32 100 -136 331 -153 342 -4 3 -15 20 -24 37 -9 18
-36 57 -61 88 -25 30 -45 57 -45 60 0 21 -201 199 -290 257 -218 142 -457 216
-780 243 -36 3 -757 6 -1603 6 -1270 1 -1538 3 -1533 14 2 7 2 16 -1 19 -4 3
-6 86 -6 185 l0 178 -203 0 -204 0 0 -1294z"/>
<path d="M7164 3553 l0 -1178 -201 -3 -201 -2 -1 -88 c-1 -48 -2 -94 -2 -102
1 -8 1 -44 0 -80 0 -75 0 -81 2 -114 l2 -24 1293 1 1294 0 0 203 0 204 -200 0
-200 0 0 58 c-1 31 -1 562 -1 1180 l0 1122 -893 0 -892 0 0 -1177z"/>
<path d="M4211 1233 c-104 -33 -205 -109 -242 -182 -8 -14 -16 -28 -19 -31
-17 -16 -64 -160 -53 -160 3 0 1 -6 -4 -12 -10 -13 -9 -187 0 -243 37 -209
206 -364 413 -378 113 -8 249 28 320 85 131 105 198 263 193 453 -4 150 -49
274 -131 357 -44 44 -108 94 -108 83 0 -3 -10 1 -22 9 -72 46 -237 55 -347 19z
m260 -106 c118 -53 185 -156 205 -317 8 -59 8 -61 0 -135 -7 -66 -9 -72 -31
-130 -22 -58 -21 -55 -75 -117 -38 -43 -104 -85 -124 -80 -4 2 -13 -2 -20 -7
-20 -17 -147 -7 -196 15 -81 37 -169 145 -184 226 -3 13 -5 23 -6 23 -11 0
-16 188 -7 240 34 187 149 300 313 304 57 2 82 -3 125 -22z"/>
<path d="M993 1242 l-43 -3 0 -500 0 -499 73 1 72 0 170 270 c94 148 176 276
183 284 6 7 12 16 12 19 0 4 12 25 27 49 14 23 44 76 66 117 22 41 43 79 47
83 9 10 6 -46 -4 -61 -3 -6 -2 -13 3 -16 4 -3 5 -23 2 -43 -4 -21 -7 -186 -6
-368 l0 -330 63 0 62 -1 0 226 c1 634 1 763 -4 767 -5 5 -43 6 -106 4 -20 -1
-34 -15 -65 -67 -22 -36 -46 -72 -52 -79 -7 -7 -13 -17 -13 -21 0 -4 -10 -21
-23 -38 -13 -17 -50 -74 -82 -126 -33 -52 -62 -97 -65 -100 -3 -3 -28 -41 -55
-85 -27 -44 -60 -98 -74 -120 -14 -22 -26 -46 -27 -54 -2 -8 -7 -17 -12 -20
-5 -3 -21 -28 -35 -56 -45 -87 -47 -87 -41 5 8 110 11 737 4 753 -5 13 -12 14
-77 9z"/>
<path d="M2005 1240 l-50 -5 -1 -497 0 -497 65 2 66 2 2 220 c1 121 2 226 2
233 1 9 57 12 246 12 189 0 245 -3 246 -12 1 -7 2 -112 3 -233 l1 -220 65 0
c69 0 71 2 70 65 0 20 0 142 1 155 0 6 -2 25 -4 43 -2 17 0 32 5 32 4 0 4 10
-1 23 -5 12 -5 31 -1 42 4 11 5 24 2 29 -3 5 -4 39 -3 75 1 36 1 71 2 76 0 6
-2 25 -4 43 -2 17 0 32 5 32 4 0 4 10 -1 23 -5 12 -5 31 -1 42 4 11 5 24 2 29
-3 5 -4 39 -3 75 2 75 2 75 0 154 -1 33 -7 57 -13 58 -59 4 -99 3 -109 -3 -9
-5 -12 -65 -12 -210 l0 -203 -235 -1 c-129 -1 -242 0 -250 2 -13 3 -15 34 -14
204 1 228 4 219 -81 210z"/>
<path d="M2993 1242 l-43 -3 0 -75 c0 -41 -1 -220 -1 -399 0 -179 1 -370 1
-425 l0 -100 69 0 69 0 -8 34 c-4 19 -4 40 0 46 4 7 6 29 3 49 -2 20 -4 43 -4
51 1 8 1 77 1 153 l1 137 249 0 250 0 0 -92 c0 -51 0 -102 0 -113 1 -48 1
-181 2 -195 0 -8 -1 -20 -2 -25 -8 -39 -1 -44 68 -42 l67 1 -2 495 c0 273 -2
498 -2 501 -1 4 -81 5 -126 1 -11 -1 -11 -93 0 -110 3 -6 3 -11 -2 -11 -4 0
-7 -28 -5 -62 2 -35 3 -70 3 -78 -1 -8 -1 -47 0 -85 l0 -70 -248 0 -248 0 -2
35 c-2 53 -3 107 -3 198 0 6 1 41 1 75 1 35 -1 75 -4 88 -7 26 -9 26 -84 21z"/>
<path d="M5128 1245 c-2 -2 -93 -12 -129 -15 -7 0 -7 -980 0 -981 4 0 15 -3
26 -5 47 -11 258 -9 331 3 79 14 162 47 200 80 28 25 75 107 78 137 1 15 5 28
8 31 14 14 -16 132 -43 172 -25 35 -103 94 -131 99 -5 1 -12 2 -18 3 -19 2
-10 16 18 29 97 44 157 163 129 257 -12 42 -38 87 -62 108 -29 26 -105 63
-145 72 -33 7 -255 16 -262 10z m240 -117 c67 -25 102 -79 98 -149 -5 -85 -56
-132 -166 -155 -32 -7 -160 -7 -166 -1 -4 4 -8 77 -9 162 -1 178 -12 163 116
163 49 -1 93 -7 127 -20z m0 -428 c54 -17 116 -76 127 -121 15 -65 -1 -135
-39 -175 -22 -24 -142 -82 -130 -63 4 8 1 8 -12 1 -21 -10 -163 -10 -179 0 -8
5 -13 363 -6 375 5 7 206 -7 239 -17z"/>
<path d="M6094 1238 c-2 -4 -29 -78 -60 -165 -30 -87 -59 -167 -63 -178 -5
-11 -23 -63 -41 -115 -17 -52 -35 -104 -40 -115 -8 -19 -20 -56 -26 -80 -2 -5
-28 -79 -58 -164 -31 -85 -56 -160 -56 -166 0 -8 14 -12 38 -11 20 1 42 -2 49
-6 6 -5 14 -5 18 2 3 6 10 8 15 5 5 -3 13 9 19 27 7 18 31 89 54 158 l43 125
177 1 c97 0 181 -2 185 -5 8 -5 31 -64 38 -93 1 -5 3 -10 4 -13 1 -3 3 -8 5
-12 1 -5 4 -15 8 -23 3 -8 18 -49 32 -92 l27 -76 68 0 68 0 -14 52 c-7 28 -18
60 -23 71 -5 11 -16 40 -24 65 -9 25 -30 86 -47 135 -18 50 -33 95 -34 100 -1
6 -4 15 -7 20 -6 9 -31 80 -35 98 -1 4 -2 8 -4 10 -1 1 -3 9 -5 17 -2 8 -32
92 -66 185 -33 94 -62 176 -62 183 0 6 -3 12 -7 12 -3 0 -6 10 -7 21 -1 12 -4
23 -6 25 -7 8 -159 9 -163 2z m86 -141 c0 -13 65 -219 79 -252 5 -11 15 -40
22 -65 7 -25 16 -49 21 -55 4 -5 8 -19 8 -32 0 -13 5 -23 12 -23 6 0 8 -3 4
-7 -8 -8 -306 -12 -306 -5 0 2 29 90 64 195 36 106 68 209 71 229 6 34 25 45
25 15z"/>
<path d="M6760 1240 c-4 -3 -8 -228 -8 -501 l0 -496 349 0 c192 0 351 -2 354
-4 2 -3 6 -56 9 -119 2 -63 5 -116 5 -117 1 0 25 -1 54 -1 l52 1 2 91 c1 50 2
123 3 161 3 95 4 91 -32 90 -18 -1 -38 0 -44 2 -7 3 -10 129 -10 421 1 229 0
431 -2 447 -4 29 -5 30 -59 29 -62 0 -90 -21 -73 -54 5 -10 7 -20 4 -23 -10
-9 -11 -67 -1 -67 4 0 5 -5 1 -11 -9 -16 -11 -119 -2 -119 4 0 5 -6 2 -13 -9
-24 -10 -87 -2 -87 5 0 6 -4 3 -10 -10 -16 -11 -90 -2 -90 4 0 5 -5 2 -11 -10
-15 -11 -129 -2 -129 5 0 5 -4 2 -10 -9 -15 -12 -90 -2 -90 4 0 4 -8 0 -18
-10 -20 -9 -109 0 -118 3 -4 2 -15 -4 -25 -9 -18 -23 -19 -241 -17 l-232 3 0
437 c-1 240 -4 439 -7 443 -8 8 -108 12 -119 5z"/>
<path d="M7773 1242 l-23 -3 0 -499 0 -498 73 1 72 2 53 83 c28 46 52 87 52
92 0 4 4 10 8 12 11 4 215 319 278 429 26 46 53 87 58 91 6 4 7 8 2 8 -5 0 -1
9 10 21 10 12 18 22 16 23 -6 2 16 54 26 60 5 3 7 -11 5 -32 -2 -20 -5 -206
-7 -414 l-3 -376 62 1 61 1 0 240 c-1 133 3 247 8 254 5 7 5 12 0 12 -5 0 -9
107 -8 237 1 131 0 243 -2 248 -3 6 -23 9 -47 8 -23 -1 -52 -2 -63 -2 -16 -1
-35 -22 -70 -78 -27 -43 -52 -85 -56 -95 -4 -10 -12 -18 -18 -18 -5 0 -10 -5
-10 -10 0 -12 -52 -94 -62 -98 -5 -2 -8 -8 -8 -13 0 -9 -49 -90 -61 -99 -3 -3
-14 -21 -24 -40 -10 -19 -21 -37 -25 -40 -9 -7 -160 -258 -160 -267 0 -5 -12
-26 -25 -48 l-25 -40 6 80 c7 102 11 728 4 752 -5 18 -39 23 -97 15z"/>
<path d="M8963 1234 c-74 -16 -138 -47 -174 -83 -73 -77 -93 -206 -46 -298 30
-58 119 -123 169 -123 27 0 22 -18 -12 -35 -63 -33 -105 -99 -161 -258 -21
-61 -42 -119 -46 -127 -3 -8 -7 -17 -7 -20 -1 -3 -7 -15 -14 -27 -11 -20 -10
-22 20 -25 18 -2 52 -1 75 0 40 4 42 6 61 55 21 53 44 124 48 143 4 23 74 160
93 182 36 42 91 56 208 53 l43 -1 -1 -197 c-1 -109 0 -206 0 -215 1 -15 11
-18 66 -18 l65 0 0 495 c0 464 -1 495 -17 496 -10 0 -27 3 -38 5 -50 12 -274
10 -332 -2z m232 -94 c19 -7 20 -16 20 -186 l0 -179 -85 -1 c-188 -2 -293 80
-277 217 3 27 12 56 19 64 30 36 64 65 75 65 7 0 13 5 13 12 0 6 3 9 6 6 3 -3
17 -3 32 2 35 10 171 10 197 0z"/>
</g>
</svg>
